<mxfile host="Electron" agent="Mozilla/5.0 (Windows NT 10.0; Win64; x64) AppleWebKit/537.36 (KHTML, like Gecko) draw.io/28.0.6 Chrome/138.0.7204.100 Electron/37.2.3 Safari/537.36" version="28.0.6">
  <diagram name="Page-1" id="BM9XLk1y28O2vwDWMJOo">
    <mxGraphModel dx="1048" dy="688" grid="1" gridSize="10" guides="1" tooltips="1" connect="1" arrows="1" fold="1" page="1" pageScale="1" pageWidth="1100" pageHeight="850" math="0" shadow="0">
      <root>
        <mxCell id="0" />
        <mxCell id="1" parent="0" />
        <mxCell id="qzzi-1FJhkjz5SY6AyhB-32" value="Employee" style="swimlane;childLayout=stackLayout;horizontal=1;startSize=50;horizontalStack=0;rounded=1;fontSize=14;fontStyle=0;strokeWidth=2;resizeParent=0;resizeLast=1;shadow=0;dashed=0;align=center;arcSize=4;whiteSpace=wrap;html=1;" vertex="1" parent="1">
          <mxGeometry x="29" y="560" width="160" height="215" as="geometry" />
        </mxCell>
        <mxCell id="qzzi-1FJhkjz5SY6AyhB-33" value="+ employee_id&lt;div&gt;+ first_name&lt;br&gt;+ last_name&lt;/div&gt;&lt;div&gt;+ email&lt;/div&gt;&lt;div&gt;+ password_hash&lt;/div&gt;&lt;div&gt;+ role&lt;/div&gt;&lt;div&gt;+ department&lt;/div&gt;&lt;div&gt;+ store_id&lt;/div&gt;&lt;div&gt;+ date_joined&lt;/div&gt;&lt;div&gt;+ is_active&lt;/div&gt;" style="align=left;strokeColor=none;fillColor=none;spacingLeft=4;spacingRight=4;fontSize=12;verticalAlign=top;resizable=0;rotatable=0;part=1;html=1;whiteSpace=wrap;" vertex="1" parent="qzzi-1FJhkjz5SY6AyhB-32">
          <mxGeometry y="50" width="160" height="165" as="geometry" />
        </mxCell>
        <mxCell id="qzzi-1FJhkjz5SY6AyhB-36" value="Recognitions" style="swimlane;childLayout=stackLayout;horizontal=1;startSize=50;horizontalStack=0;rounded=1;fontSize=14;fontStyle=0;strokeWidth=2;resizeParent=0;resizeLast=1;shadow=0;dashed=0;align=center;arcSize=4;whiteSpace=wrap;html=1;" vertex="1" parent="1">
          <mxGeometry x="209" y="560" width="170" height="180" as="geometry" />
        </mxCell>
        <mxCell id="qzzi-1FJhkjz5SY6AyhB-37" value="+ recognition_id&lt;br&gt;+ sender_id&lt;br&gt;+ receiver_id&lt;div&gt;+ badge_type&lt;/div&gt;&lt;div&gt;+ message&lt;/div&gt;&lt;div&gt;+ points_awarded&lt;/div&gt;&lt;div&gt;+ created_at&lt;/div&gt;" style="align=left;strokeColor=none;fillColor=none;spacingLeft=4;spacingRight=4;fontSize=12;verticalAlign=top;resizable=0;rotatable=0;part=1;html=1;whiteSpace=wrap;" vertex="1" parent="qzzi-1FJhkjz5SY6AyhB-36">
          <mxGeometry y="50" width="170" height="130" as="geometry" />
        </mxCell>
        <mxCell id="qzzi-1FJhkjz5SY6AyhB-38" value="points_balance" style="swimlane;childLayout=stackLayout;horizontal=1;startSize=50;horizontalStack=0;rounded=1;fontSize=14;fontStyle=0;strokeWidth=2;resizeParent=0;resizeLast=1;shadow=0;dashed=0;align=center;arcSize=4;whiteSpace=wrap;html=1;" vertex="1" parent="1">
          <mxGeometry x="400" y="560" width="160" height="120" as="geometry" />
        </mxCell>
        <mxCell id="qzzi-1FJhkjz5SY6AyhB-39" value="+ employee_id&lt;br&gt;+ total_points&lt;br&gt;+ last_added" style="align=left;strokeColor=none;fillColor=none;spacingLeft=4;spacingRight=4;fontSize=12;verticalAlign=top;resizable=0;rotatable=0;part=1;html=1;whiteSpace=wrap;" vertex="1" parent="qzzi-1FJhkjz5SY6AyhB-38">
          <mxGeometry y="50" width="160" height="70" as="geometry" />
        </mxCell>
        <mxCell id="qzzi-1FJhkjz5SY6AyhB-40" value="Rewards" style="swimlane;childLayout=stackLayout;horizontal=1;startSize=50;horizontalStack=0;rounded=1;fontSize=14;fontStyle=0;strokeWidth=2;resizeParent=0;resizeLast=1;shadow=0;dashed=0;align=center;arcSize=4;whiteSpace=wrap;html=1;" vertex="1" parent="1">
          <mxGeometry x="580" y="560" width="160" height="180" as="geometry" />
        </mxCell>
        <mxCell id="qzzi-1FJhkjz5SY6AyhB-41" value="+ reward_id&lt;br&gt;+ name&lt;br&gt;+ description&lt;div&gt;+ points_required&lt;/div&gt;&lt;div&gt;+ stock_quantity&lt;/div&gt;&lt;div&gt;+ created_at&lt;/div&gt;" style="align=left;strokeColor=none;fillColor=none;spacingLeft=4;spacingRight=4;fontSize=12;verticalAlign=top;resizable=0;rotatable=0;part=1;html=1;whiteSpace=wrap;" vertex="1" parent="qzzi-1FJhkjz5SY6AyhB-40">
          <mxGeometry y="50" width="160" height="130" as="geometry" />
        </mxCell>
        <mxCell id="qzzi-1FJhkjz5SY6AyhB-42" value="Redemptions" style="swimlane;childLayout=stackLayout;horizontal=1;startSize=50;horizontalStack=0;rounded=1;fontSize=14;fontStyle=0;strokeWidth=2;resizeParent=0;resizeLast=1;shadow=0;dashed=0;align=center;arcSize=4;whiteSpace=wrap;html=1;" vertex="1" parent="1">
          <mxGeometry x="760" y="560" width="110" height="140" as="geometry" />
        </mxCell>
        <mxCell id="qzzi-1FJhkjz5SY6AyhB-43" value="+ redemption_id&lt;div&gt;+ employee_id&lt;/div&gt;&lt;div&gt;+ reward_id&lt;/div&gt;&lt;div&gt;+ redeemed_at&lt;/div&gt;&lt;div&gt;+ status&lt;/div&gt;" style="align=left;strokeColor=none;fillColor=none;spacingLeft=4;spacingRight=4;fontSize=12;verticalAlign=top;resizable=0;rotatable=0;part=1;html=1;whiteSpace=wrap;" vertex="1" parent="qzzi-1FJhkjz5SY6AyhB-42">
          <mxGeometry y="50" width="110" height="90" as="geometry" />
        </mxCell>
        <mxCell id="qzzi-1FJhkjz5SY6AyhB-46" value="leaderboard_cache" style="swimlane;childLayout=stackLayout;horizontal=1;startSize=50;horizontalStack=0;rounded=1;fontSize=14;fontStyle=0;strokeWidth=2;resizeParent=0;resizeLast=1;shadow=0;dashed=0;align=center;arcSize=4;whiteSpace=wrap;html=1;" vertex="1" parent="1">
          <mxGeometry x="910" y="560" width="130" height="190" as="geometry" />
        </mxCell>
        <mxCell id="qzzi-1FJhkjz5SY6AyhB-47" value="+&amp;nbsp;&lt;span style=&quot;background-color: rgb(26, 26, 26); color: rgb(216, 222, 233); font-family: Consolas, &amp;quot;Courier New&amp;quot;, monospace; font-size: 14px; white-space: pre;&quot;&gt;leaderboard_id&lt;/span&gt;&lt;div&gt;&lt;font face=&quot;Consolas, Courier New, monospace&quot; color=&quot;#d8dee9&quot;&gt;&lt;span style=&quot;font-size: 14px; white-space: pre; background-color: rgb(26, 26, 26);&quot;&gt;+ period_start&lt;/span&gt;&lt;/font&gt;&lt;/div&gt;&lt;div&gt;&lt;font face=&quot;Consolas, Courier New, monospace&quot; color=&quot;#d8dee9&quot;&gt;&lt;span style=&quot;font-size: 14px; white-space: pre; background-color: rgb(26, 26, 26);&quot;&gt;+ period_end&lt;/span&gt;&lt;/font&gt;&lt;/div&gt;&lt;div&gt;&lt;font face=&quot;Consolas, Courier New, monospace&quot; color=&quot;#d8dee9&quot;&gt;&lt;span style=&quot;font-size: 14px; white-space: pre; background-color: rgb(26, 26, 26);&quot;&gt;+ employee_id&lt;/span&gt;&lt;/font&gt;&lt;/div&gt;&lt;div&gt;&lt;font face=&quot;Consolas, Courier New, monospace&quot; color=&quot;#d8dee9&quot;&gt;&lt;span style=&quot;font-size: 14px; white-space: pre; background-color: rgb(26, 26, 26);&quot;&gt;+ points&lt;/span&gt;&lt;/font&gt;&lt;/div&gt;&lt;div&gt;&lt;font face=&quot;Consolas, Courier New, monospace&quot; color=&quot;#d8dee9&quot;&gt;&lt;span style=&quot;font-size: 14px; white-space: pre; background-color: rgb(26, 26, 26);&quot;&gt;+ rank_position&lt;/span&gt;&lt;/font&gt;&lt;/div&gt;&lt;div&gt;&lt;font face=&quot;Consolas, Courier New, monospace&quot; color=&quot;#d8dee9&quot;&gt;&lt;span style=&quot;font-size: 14px; white-space: pre; background-color: rgb(26, 26, 26);&quot;&gt;&lt;br&gt;&lt;/span&gt;&lt;/font&gt;&lt;/div&gt;" style="align=left;strokeColor=none;fillColor=none;spacingLeft=4;spacingRight=4;fontSize=12;verticalAlign=top;resizable=0;rotatable=0;part=1;html=1;whiteSpace=wrap;" vertex="1" parent="qzzi-1FJhkjz5SY6AyhB-46">
          <mxGeometry y="50" width="130" height="140" as="geometry" />
        </mxCell>
      </root>
    </mxGraphModel>
  </diagram>
</mxfile>
